<?xml version="1.0" standalone="no"?>
<!DOCTYPE svg PUBLIC "-//W3C//DTD SVG 20010904//EN"
 "http://www.w3.org/TR/2001/REC-SVG-20010904/DTD/svg10.dtd">
<svg version="1.0" xmlns="http://www.w3.org/2000/svg"
 width="876.000000pt" height="876.000000pt" viewBox="0 0 876.000000 876.000000"
 preserveAspectRatio="xMidYMid meet">
<metadata>
Created by potrace 1.14, written by Peter Selinger 2001-2017
</metadata>
<g transform="translate(0.000000,876.000000) scale(0.100000,-0.100000)"
fill="#000000" stroke="none">
<path d="M3999 8756 c-2 -2 -31 -6 -64 -10 -113 -10 -160 -16 -185 -21 -14 -3
-43 -7 -65 -10 -47 -7 -80 -13 -80 -15 0 -1 -14 -3 -32 -6 -43 -5 -224 -43
-243 -51 -8 -3 -22 -7 -30 -8 -8 -1 -40 -10 -70 -19 -30 -9 -56 -16 -58 -16
-10 1 -59 -15 -69 -23 -7 -5 -13 -7 -13 -4 0 6 -277 -89 -345 -118 -48 -21
-88 -38 -95 -40 -26 -9 -69 -29 -215 -102 -93 -47 -192 -98 -220 -114 -27 -16
-58 -32 -68 -35 -9 -4 -17 -10 -17 -14 0 -5 -12 -13 -27 -19 -29 -12 -124 -69
-133 -80 -3 -3 -38 -27 -77 -54 -40 -26 -81 -53 -90 -61 -10 -8 -49 -38 -88
-67 -66 -50 -148 -117 -225 -184 -68 -60 -387 -381 -436 -439 -27 -32 -54 -64
-59 -70 -67 -71 -365 -489 -365 -512 0 -3 -9 -19 -20 -35 -45 -62 -290 -548
-290 -574 0 -2 -5 -16 -12 -32 -6 -15 -12 -30 -13 -33 -4 -13 -18 -47 -25 -65
-5 -11 -14 -38 -21 -60 -7 -22 -17 -45 -21 -50 -4 -6 -10 -26 -13 -45 -3 -19
-11 -40 -17 -47 -6 -7 -8 -13 -5 -13 3 0 -4 -26 -15 -57 -11 -32 -21 -65 -23
-73 -2 -8 -15 -59 -29 -113 -15 -54 -29 -115 -32 -135 -3 -21 -7 -39 -9 -42
-2 -3 -11 -48 -20 -100 -30 -176 -42 -258 -52 -345 -10 -94 -10 -854 0 -930 5
-33 10 -75 12 -93 2 -18 6 -52 10 -75 4 -23 9 -55 11 -72 20 -138 92 -446 134
-575 12 -36 23 -74 26 -85 2 -11 12 -42 23 -70 21 -54 32 -87 33 -95 0 -3 9
-22 19 -42 11 -21 17 -38 13 -38 -3 0 1 -12 11 -26 9 -14 18 -34 20 -45 2 -10
15 -41 29 -69 14 -27 23 -50 21 -50 -2 0 32 -71 76 -157 89 -176 83 -164 136
-253 21 -36 44 -77 52 -92 8 -16 18 -28 23 -28 4 0 8 -5 8 -11 0 -18 191 -290
290 -412 123 -151 445 -485 548 -567 24 -19 58 -48 75 -63 50 -44 60 -52 102
-83 22 -16 42 -31 45 -34 3 -3 41 -31 85 -63 44 -31 85 -60 90 -64 27 -22 126
-83 133 -83 5 0 17 -9 27 -20 10 -11 24 -20 31 -20 7 0 19 -6 26 -14 33 -33
523 -281 573 -290 6 -1 26 -9 45 -18 50 -23 246 -95 280 -103 8 -2 35 -10 60
-18 25 -8 72 -22 105 -32 33 -9 73 -21 89 -26 16 -5 31 -7 34 -4 3 3 11 0 19
-6 7 -6 13 -9 13 -5 0 3 11 1 24 -4 13 -5 43 -12 67 -15 24 -4 47 -9 51 -11 7
-4 88 -21 148 -30 19 -3 46 -7 60 -10 49 -9 86 -14 135 -19 28 -2 73 -8 100
-12 64 -10 820 -10 900 -1 33 4 78 10 100 12 22 3 56 8 75 11 19 4 42 7 50 7
8 0 35 4 60 9 25 4 61 11 80 14 57 8 93 15 135 27 22 6 47 12 55 13 69 11 381
101 445 130 17 7 41 16 55 20 14 3 34 10 45 14 11 5 40 16 65 26 124 48 415
186 535 253 139 78 312 190 425 272 104 77 194 146 231 180 16 14 45 39 64 55
20 17 58 50 85 75 26 25 63 59 81 76 43 40 235 238 274 284 118 137 157 187
252 319 34 47 67 91 72 98 9 10 83 125 114 178 7 11 21 33 32 50 29 43 86 152
161 305 36 74 73 150 82 169 9 19 17 37 17 40 1 3 6 15 12 26 6 11 12 25 13
30 1 6 7 24 15 40 22 52 56 142 59 156 1 8 4 19 7 24 9 15 88 266 93 295 2 14
9 38 15 54 7 16 9 31 6 34 -2 3 -1 10 5 17 5 6 11 27 14 46 2 19 9 52 15 74 5
22 13 54 15 70 3 17 8 41 11 55 11 55 14 77 20 115 10 62 14 96 21 150 3 28 8
70 11 95 10 77 12 790 2 880 -9 85 -18 158 -23 195 -2 11 -6 40 -10 65 -7 47
-21 122 -37 200 -5 25 -11 54 -13 66 -11 55 -46 191 -64 244 -3 8 -7 24 -9 35
-9 49 -108 332 -144 412 -10 24 -19 45 -19 48 0 14 -188 406 -199 415 -4 3
-15 24 -26 47 -11 24 -23 43 -27 43 -5 0 -8 4 -8 10 0 9 -108 190 -120 200 -3
3 -19 26 -35 52 -17 27 -33 48 -37 48 -5 0 -8 7 -8 15 0 8 -4 15 -10 15 -5 0
-10 5 -10 10 0 13 -151 212 -194 256 -12 12 -45 50 -73 85 -49 60 -336 347
-413 414 -92 80 -160 135 -215 176 -33 24 -62 46 -65 49 -16 17 -80 60 -88 60
-6 0 -12 4 -14 9 -4 12 -154 111 -168 111 -5 0 -10 4 -10 8 0 5 -12 15 -27 23
-27 14 -144 81 -173 99 -22 14 -324 165 -330 165 -3 0 -22 8 -42 18 -74 34
-127 56 -210 86 -32 12 -82 30 -112 42 -30 11 -60 22 -67 23 -8 2 -21 6 -29 9
-8 3 -51 15 -95 28 -44 12 -111 30 -149 41 -38 11 -80 21 -95 23 -14 2 -26 4
-26 5 0 2 -22 7 -60 15 -16 3 -37 8 -45 10 -8 3 -33 7 -55 10 -22 3 -51 8 -65
11 -55 10 -67 12 -115 19 -27 3 -68 8 -90 11 -22 2 -56 7 -75 10 -39 7 -844
16 -851 10z m561 -610 c52 -3 118 -7 145 -10 28 -3 77 -8 110 -12 33 -3 76 -7
95 -9 19 -2 35 -4 35 -5 0 -2 38 -9 85 -16 25 -3 61 -9 80 -14 19 -5 46 -11
60 -14 57 -10 211 -49 285 -72 44 -14 87 -27 95 -29 14 -3 145 -49 180 -62 8
-4 17 -7 20 -8 3 -1 27 -11 53 -23 27 -12 51 -22 53 -22 11 0 266 -122 274
-131 3 -3 25 -15 50 -28 66 -34 111 -59 145 -81 17 -11 37 -23 45 -27 8 -4 20
-11 25 -15 6 -5 26 -19 45 -31 94 -62 167 -114 190 -134 14 -13 28 -23 31 -23
3 0 15 -8 27 -17 11 -10 40 -34 63 -53 177 -144 390 -352 526 -517 10 -12 26
-31 35 -42 17 -20 17 -21 0 -22 -22 0 -3665 0 -3672 0 -9 1 -6 1335 3 1349 5
7 12 10 17 7 5 -3 29 -1 55 5 25 6 62 13 83 15 20 3 53 8 72 11 19 3 60 7 90
10 30 3 73 7 95 9 22 3 101 7 175 10 74 4 136 7 137 8 0 1 23 1 50 0 26 -2 91
-5 143 -7z m-1545 -836 l1 -580 -46 -1 c-58 0 -1501 0 -1518 0 -9 1 -10 6 -3
19 10 17 21 30 114 136 73 83 251 259 333 331 38 32 76 66 85 75 9 8 29 24 45
35 15 11 39 30 53 41 112 92 346 243 529 340 34 19 70 38 80 44 34 20 208 97
244 109 21 7 40 17 43 22 4 5 14 9 23 9 16 0 17 -40 17 -580z m-5 -1200 c3 0
5 -367 5 -815 l0 -815 -70 -34 c-68 -33 -161 -77 -295 -138 -36 -17 -96 -45
-135 -63 -38 -18 -101 -48 -140 -65 -65 -30 -146 -68 -317 -149 -37 -18 -70
-32 -73 -32 -3 1 -39 -17 -80 -39 -41 -22 -75 -37 -75 -34 0 2 -26 -9 -57 -25
-32 -16 -96 -48 -143 -69 -47 -22 -120 -56 -162 -76 -142 -66 -222 -103 -288
-134 -68 -31 -152 -70 -305 -141 -49 -24 -100 -47 -112 -53 -26 -13 -32 -10
-38 21 -2 13 -6 30 -9 39 -3 9 -8 32 -11 51 -3 19 -8 38 -10 41 -3 4 -7 25
-11 45 -3 21 -8 47 -10 59 -52 267 -73 590 -59 891 6 112 20 267 30 315 2 14
7 46 10 72 2 26 7 58 10 70 3 13 8 37 10 53 2 17 4 30 5 30 2 0 4 11 14 60 3
17 15 66 26 110 11 44 23 94 26 110 3 17 11 36 16 43 6 6 8 12 5 12 -3 0 5 30
19 68 13 37 24 68 23 70 -1 2 4 15 9 30 6 15 23 61 38 102 28 77 51 131 108
255 18 39 39 84 47 102 8 19 22 33 34 35 15 2 1937 1 1965 -2z m3430 0 l75 -1
-35 -17 c-19 -8 -68 -31 -107 -49 -40 -18 -108 -50 -150 -70 -43 -21 -80 -38
-83 -38 -3 0 -32 -13 -65 -29 -33 -15 -98 -46 -145 -68 -128 -60 -217 -102
-295 -138 -38 -18 -108 -51 -155 -74 -47 -22 -87 -41 -90 -41 -3 0 -30 -12
-60 -27 -74 -35 -231 -109 -305 -143 -101 -46 -286 -132 -430 -200 -101 -47
-207 -97 -300 -140 -92 -42 -209 -97 -295 -137 -47 -22 -119 -56 -160 -75 -41
-20 -102 -48 -135 -64 -33 -16 -63 -29 -65 -29 -3 0 -6 300 -6 668 0 643 1
667 19 672 14 4 2502 4 2787 0z m1350 -116 c0 -8 11 -34 23 -57 13 -23 30 -60
37 -82 7 -22 18 -51 26 -65 7 -14 17 -38 23 -55 5 -16 19 -55 31 -85 12 -30
23 -62 25 -70 2 -8 13 -44 25 -80 19 -58 53 -181 65 -235 3 -11 8 -33 12 -50
4 -16 7 -32 8 -35 0 -3 5 -23 10 -45 5 -22 9 -47 10 -55 1 -8 4 -28 8 -45 4
-16 9 -50 12 -75 3 -25 7 -54 9 -65 27 -147 42 -458 32 -685 -5 -100 -17 -253
-21 -270 -2 -8 -7 -40 -10 -70 -15 -135 -92 -500 -108 -517 -3 -2 -25 1 -48 7
-24 7 -52 14 -63 16 -10 2 -33 8 -51 14 -18 6 -41 12 -51 14 -10 3 -46 12 -79
21 -33 9 -67 18 -75 20 -8 2 -42 11 -75 20 -33 9 -112 30 -175 46 -63 17 -146
40 -185 51 -38 10 -81 21 -94 23 -13 2 -35 8 -50 14 -14 6 -55 18 -91 26 -36
9 -81 21 -100 26 -19 5 -42 11 -50 13 -8 2 -58 16 -110 30 -52 15 -102 29
-110 31 -40 9 -104 26 -190 50 -142 38 -156 42 -199 51 -14 3 -28 7 -33 10 -4
3 -16 7 -25 9 -10 2 -45 11 -78 20 -33 9 -71 18 -85 21 -14 2 -36 9 -50 14
-24 9 -134 38 -173 45 -9 2 -21 6 -25 9 -5 3 -19 7 -33 9 -13 3 -44 11 -69 18
-58 16 -61 17 -85 23 -11 2 -47 12 -80 21 -33 9 -67 18 -75 19 -9 1 -20 5 -25
8 -6 3 -28 9 -50 13 -45 9 -54 12 -57 15 -2 1 -10 3 -18 5 -8 2 -33 9 -55 15
-22 6 -48 12 -58 15 -9 2 -21 6 -25 9 -5 3 -19 7 -33 10 -22 5 -40 9 -86 20
-24 6 -146 39 -258 70 -115 31 -365 97 -385 101 -8 2 -16 4 -17 5 -4 3 -12 5
-55 14 -21 5 -36 11 -33 15 4 7 72 42 200 101 33 15 94 43 135 63 41 19 100
46 130 60 30 14 99 46 152 71 54 26 99 46 100 45 2 0 26 10 53 24 57 28 239
114 335 159 36 16 97 45 135 63 39 18 102 48 140 66 39 17 108 50 155 72 47
23 87 41 90 42 3 0 30 12 60 26 98 47 344 162 440 206 52 24 117 55 295 139
44 21 82 38 85 39 3 0 37 16 75 34 39 18 103 48 143 67 39 19 105 49 145 68
39 19 106 50 147 69 41 19 111 51 155 72 44 21 118 55 165 77 47 21 108 50
135 63 58 29 75 31 75 9z m-4377 -2060 c9 -2 26 -6 37 -9 47 -12 66 -16 89
-21 14 -3 28 -7 33 -10 4 -3 16 -7 25 -9 10 -2 61 -15 113 -30 52 -15 102 -28
110 -30 8 -2 51 -13 95 -25 90 -24 110 -29 144 -36 14 -3 28 -7 33 -10 4 -3
16 -7 25 -9 10 -2 130 -33 267 -70 137 -37 257 -68 265 -70 9 -2 57 -15 106
-29 96 -27 310 -84 335 -90 8 -2 35 -9 60 -16 25 -7 52 -14 60 -15 8 -2 15 -4
15 -6 0 -1 9 -3 20 -4 11 -1 43 -9 70 -18 54 -17 278 -77 307 -82 10 -2 22 -6
26 -9 5 -3 19 -7 33 -10 23 -4 75 -18 247 -64 78 -22 82 -23 97 -28 6 -2 37
-10 70 -18 33 -8 85 -21 115 -30 209 -57 477 -127 482 -125 2 0 17 -5 33 -11
17 -7 37 -13 45 -15 8 -2 35 -8 60 -15 25 -7 52 -14 60 -15 8 -2 16 -4 18 -4
1 -1 4 -1 7 -2 2 0 19 -5 37 -11 18 -5 74 -21 123 -34 117 -32 122 -33 143
-38 9 -2 37 -10 62 -17 25 -7 50 -13 56 -15 6 -1 36 -9 65 -17 30 -9 65 -18
79 -21 14 -3 73 -19 132 -36 96 -27 137 -37 161 -39 4 -1 7 -6 7 -12 0 -13
-40 -102 -49 -109 -4 -3 -19 -27 -32 -55 -30 -61 -44 -85 -86 -152 -18 -28
-33 -56 -33 -61 0 -6 -3 -12 -8 -14 -4 -1 -27 -34 -52 -73 -25 -38 -48 -74
-53 -80 -4 -5 -28 -37 -52 -70 -25 -33 -48 -65 -52 -70 -16 -21 -88 -110 -98
-121 -5 -6 -30 -35 -55 -64 -25 -29 -98 -106 -163 -172 l-119 -119 -61 14
c-34 8 -105 27 -157 42 -52 14 -106 28 -120 31 -14 3 -34 8 -45 11 -11 4 -24
8 -30 9 -5 2 -62 17 -125 34 -63 17 -123 33 -132 36 -27 6 -47 12 -113 30 -33
9 -67 18 -75 19 -8 2 -15 4 -15 6 0 1 -9 3 -20 5 -22 3 -51 11 -161 43 -39 11
-86 23 -104 26 -18 3 -37 8 -42 11 -4 3 -17 7 -28 10 -25 5 -37 8 -130 34 -41
11 -86 23 -100 26 -14 3 -34 8 -45 11 -25 9 -28 9 -100 28 -33 9 -76 21 -95
26 -58 16 -69 19 -90 23 -11 3 -24 7 -28 10 -5 3 -19 7 -33 10 -26 5 -82 19
-144 36 -22 6 -53 13 -68 15 -15 3 -36 9 -46 14 -10 6 -29 12 -42 15 -39 8
-61 14 -124 31 -33 9 -70 18 -81 20 -12 2 -31 8 -43 14 -11 7 -21 10 -21 7 0
-3 -15 0 -32 5 -18 6 -44 12 -57 15 -13 3 -32 9 -43 15 -10 5 -23 7 -28 4 -5
-3 -11 -1 -15 4 -3 5 -13 10 -23 10 -18 0 -37 4 -62 14 -16 6 -158 45 -193 53
-12 3 -33 7 -46 10 -13 3 -32 9 -43 15 -10 5 -18 8 -18 5 0 -2 -27 4 -60 14
-33 10 -60 16 -60 14 0 -2 -12 1 -27 7 -16 6 -35 12 -43 14 -8 2 -51 13 -95
25 -44 12 -98 27 -120 32 -22 5 -71 18 -109 29 -38 12 -77 23 -87 25 -36 8
-54 13 -114 29 -56 16 -192 52 -225 60 -8 2 -47 13 -85 24 -39 11 -81 22 -95
25 -14 3 -59 15 -100 26 -41 12 -85 23 -97 25 -12 2 -27 6 -33 10 -5 3 -20 8
-33 11 -12 2 -78 19 -147 38 -68 19 -128 32 -132 30 -5 -3 -8 -1 -8 4 0 5 -6
9 -12 9 -7 0 -33 6 -58 13 -25 7 -52 14 -60 16 -8 2 -73 19 -145 39 -152 42
-141 39 -185 49 -19 4 -54 14 -77 22 -24 7 -57 16 -74 19 -18 3 -40 10 -50 16
-10 5 -22 8 -26 7 -4 -2 -28 3 -53 11 -90 27 -90 26 -35 50 28 13 83 38 123
57 79 37 176 83 292 137 41 19 104 48 140 65 203 95 245 114 247 113 2 0 33
14 70 33 38 18 106 51 153 73 79 38 117 55 290 135 184 85 390 182 465 219 40
19 68 27 85 23 14 -3 33 -8 43 -10z m-2233 -1439 c8 -2 15 -4 15 -5 0 -1 7 -3
15 -5 8 -2 26 -7 40 -10 14 -3 36 -8 49 -11 13 -3 32 -9 43 -15 10 -5 18 -7
18 -5 0 3 11 1 24 -4 20 -7 134 -38 396 -106 30 -8 62 -16 70 -19 8 -2 15 -4
15 -5 0 -1 7 -3 15 -5 57 -14 55 -14 210 -55 63 -17 122 -33 130 -35 8 -2 58
-15 110 -30 52 -14 106 -28 120 -31 14 -3 54 -14 90 -24 36 -10 119 -33 185
-50 66 -17 145 -38 175 -46 30 -9 66 -17 79 -20 14 -3 28 -7 33 -10 4 -3 16
-7 25 -9 10 -1 62 -15 116 -30 53 -14 105 -28 115 -30 9 -3 76 -21 147 -40 72
-20 141 -38 155 -41 14 -3 34 -8 45 -11 11 -4 25 -8 30 -9 16 -5 276 -75 315
-85 19 -5 43 -12 53 -14 9 -3 25 -7 35 -10 9 -2 51 -13 92 -24 41 -11 143 -38
225 -60 83 -23 157 -43 165 -45 8 -2 35 -9 60 -16 25 -7 52 -14 60 -15 8 -2
15 -4 15 -5 0 -1 13 -4 29 -6 16 -3 38 -10 48 -15 10 -5 23 -7 28 -4 5 3 11 1
14 -4 3 -5 23 -12 43 -16 21 -5 43 -9 48 -11 6 -1 46 -12 90 -24 44 -12 87
-23 95 -25 8 -2 16 -4 18 -4 1 -1 4 -1 7 -1 3 -1 23 -7 45 -15 22 -8 40 -12
40 -9 0 2 8 0 18 -5 9 -5 33 -12 54 -15 20 -3 56 -12 80 -19 44 -14 57 -18
308 -86 151 -40 197 -53 216 -57 6 -1 36 -9 66 -18 30 -8 63 -17 74 -19 10 -2
26 -7 34 -10 8 -3 70 -20 138 -38 112 -29 121 -33 102 -46 -53 -37 -280 -151
-415 -207 -22 -9 -48 -22 -59 -27 -10 -6 -30 -13 -44 -15 -15 -3 -31 -9 -37
-13 -8 -7 -231 -82 -257 -87 -5 -1 -9 -2 -10 -4 -2 -1 -10 -3 -18 -5 -8 -1
-49 -12 -90 -23 -41 -12 -86 -23 -100 -26 -14 -3 -68 -14 -120 -25 -52 -11
-117 -22 -145 -26 -27 -3 -77 -10 -110 -15 -214 -32 -589 -39 -805 -15 -25 3
-70 7 -100 10 -89 9 -142 16 -210 30 -14 2 -38 7 -55 10 -37 6 -57 10 -120 25
-27 7 -59 13 -70 15 -11 1 -27 5 -35 8 -17 6 -123 36 -155 44 -26 5 -36 9 -55
16 -14 5 -89 30 -100 32 -3 1 -14 5 -25 9 -11 4 -33 12 -50 18 -36 12 -58 21
-105 41 -44 19 -93 40 -100 42 -3 0 -36 16 -75 34 -38 18 -86 40 -105 50 -19
9 -37 19 -40 22 -3 3 -27 17 -55 30 -61 31 -120 64 -160 90 -16 10 -37 22 -45
26 -8 4 -19 11 -25 15 -27 23 -158 108 -165 108 -5 0 -10 3 -12 8 -1 4 -39 34
-83 67 -44 33 -82 62 -85 65 -3 3 -32 28 -65 55 -33 28 -70 59 -83 70 -39 33
-253 248 -310 311 -99 110 -231 282 -312 404 -27 41 -53 80 -57 86 -16 21 -33
50 -40 64 -3 8 -15 27 -25 42 -24 35 -23 41 10 33 15 -4 34 -9 42 -10z"/>
</g>
</svg>
